<svg style="display: none;">

	<symbol id="icon-1" viewBox="0 0 67 67">
		<path d="M38.167,22.283c-2.619,0.953-4.274,3.411-4.086,6.101  l0.063,1.038l-1.048-0.127c-3.813-0.487-7.145-2.139-9.974-4.915l-1.383-1.377l-0.356,1.017c-0.754,2.267-0.272,4.661,1.299,6.271  c0.838,0.89,0.649,1.017-0.796,0.487c-0.503-0.169-0.943-0.296-0.985-0.233c-0.146,0.149,0.356,2.076,0.754,2.839  c0.545,1.06,1.655,2.097,2.871,2.712l1.027,0.487l-1.215,0.021c-1.173,0-1.215,0.021-1.089,0.467  c0.419,1.377,2.074,2.839,3.918,3.475l1.299,0.444l-1.131,0.678c-1.676,0.976-3.646,1.526-5.616,1.567  C20.775,43.256,20,43.341,20,43.405c0,0.211,2.557,1.397,4.044,1.864c4.463,1.377,9.765,0.783,13.746-1.568  c2.829-1.674,5.657-5,6.978-8.221c0.713-1.715,1.425-4.851,1.425-6.354c0-0.975,0.063-1.102,1.236-2.267  c0.692-0.678,1.341-1.419,1.467-1.631c0.21-0.403,0.188-0.403-0.88-0.043c-1.781,0.636-2.033,0.551-1.152-0.402  c0.649-0.678,1.425-1.907,1.425-2.267c0-0.063-0.314,0.042-0.671,0.233c-0.377,0.212-1.215,0.53-1.844,0.72l-1.131,0.361l-1.027-0.7  c-0.566-0.381-1.361-0.805-1.781-0.932C40.766,21.902,39.131,21.944,38.167,22.283z M34,64C17.432,64,4,50.568,4,34  C4,17.431,17.432,4,34,4s30,13.431,30,30C64,50.568,50.568,64,34,64z"/>
	</symbol>

	<symbol id="icon-2" viewBox="0 0 56.693 56.693">
		<polygon points="38.512,24.392 38.512,20.445 38.512,19.855 37.922,19.857 33.975,19.871 33.99,24.407  "/>
		<path d="M28.225,34.868c2.598,0,4.713-2.113,4.713-4.711c0-1.025-0.334-1.975-0.893-2.748c-0.855-1.186-2.248-1.965-3.82-1.965   s-2.963,0.779-3.82,1.965c-0.559,0.773-0.891,1.723-0.891,2.748C23.514,32.755,25.627,34.868,28.225,34.868z"/>
		<path d="M28.348,5.158c-13.6,0-24.625,11.023-24.625,24.623c0,13.6,11.025,24.625,24.625,24.625   c13.598,0,24.623-11.025,24.623-24.625C52.971,16.181,41.945,5.158,28.348,5.158z M41.611,27.409V38.37   c0,2.852-2.322,5.172-5.174,5.172H20.012c-2.853,0-5.173-2.32-5.173-5.172V27.409v-5.464c0-2.853,2.32-5.173,5.173-5.173h16.425   c2.852,0,5.174,2.32,5.174,5.173V27.409z"/>
		<path d="M35.545,30.157c0,4.035-3.283,7.32-7.32,7.32s-7.318-3.285-7.318-7.32c0-0.973,0.193-1.898,0.537-2.748h-3.996V38.37   c0,1.414,1.15,2.564,2.564,2.564h16.425c1.414,0,2.564-1.15,2.564-2.564V27.409h-3.998C35.35,28.259,35.545,29.185,35.545,30.157z"/>
	</symbol>

	<symbol id="icon-3" viewBox="0 0 67 67">
		<path d="M29.765,50.32h6.744V33.998h4.499l0.596-5.624h-5.095  l0.007-2.816c0-1.466,0.14-2.253,2.244-2.253h2.812V17.68h-4.5c-5.405,0-7.307,2.729-7.307,7.317v3.377h-3.369v5.625h3.369V50.32z   M34,64C17.432,64,4,50.568,4,34C4,17.431,17.432,4,34,4s30,13.431,30,30C64,50.568,50.568,64,34,64z"/>
	</symbol>

	<symbol id="icon-4" viewBox="0 0 50 50">
		<path d="M30,27c0,0-2-1.2-2-2c0,0-0.5-1.8,1-3c1.5-1.2,3-3,3-5c0-2.3-1-5-3-6h3l2.4-1c0,0-7.1,0-9.4,0  c-4.2,0-8,3.3-8,7c0,3.7,2.8,6.6,7.1,6.6c0.3,0,0.6,0,0.9,0c-0.3,0.5-0.5,1.1-0.5,1.7c0,1,0.8,2,1.5,2.7c-0.5,0-1.4,0-2,0  c-5.2,0-9,2.6-9,6c0,3.4,4.9,6,10,6c5.9,0,10-3,10-7C35,30.3,32.5,28.7,30,27z M26,23c-2.4,0-5.6-2.9-6-6c-0.4-3.1,1.6-6.1,4-6  c2.4,0.1,4.6,2.9,5,6.1C29.4,20.2,28,23,26,23z M25,38c-3.6,0-7-1.3-7-4c0-2.7,3.4-5,7-5c0.8,0,2,0,2,0c1,0,2.9,0.9,4,2  c1,1,1,2.7,1,3C32,37,30,38,25,38z"/>
		<path d="M25,1C11.7,1,1,11.7,1,25s10.7,24,24,24s24-10.7,24-24S38.3,1,25,1z M25,44C14.5,44,6,35.5,6,25S14.5,6,25,6  s19,8.5,19,19S35.5,44,25,44z"/>
	</symbol>

</svg>